#!OML:ASF X:\für Bonn\!DataBase\2005_08_12_Daniel\c3d\Daniel.ASF
:FULLY-SPECIFIED
:DEGREES
96
root 0.0266091 8.20436 -0.997408 5.46697 -85.6032 -35.7664
lowerback 57.4843 -5.04041 6.45091
upperback 2.43989 -3.95659 -2.92271
thorax -19.5741 -2.53811 -4.00654
lowerneck 2.15269 1.05371 -2.1534
upperneck 2.18413 1.33728 0.553417
head 0.291946 0.644828 0.513281
rclavicle 9.93923e-015 -1.19271e-015
rhumerus 68.5641 2.37171 -90.9885
rradius 4.75853
rwrist 53.3873
rhand -20.611 8.5541
rfingers 7.12502
rthumb 5.74993 -21.3479
lclavicle 9.93923e-015 -1.19271e-015
lhumerus 69.335 9.38527 110.603
lradius 9.74326
lwrist -89.9935
lhand -20.4272 -1.87051
lfingers 7.12502
lthumb 5.92739 28.0266
rfemur 7.11932 -63.2567 -88.3196
rtibia 140.642
rfoot 27.4797 69.923
rtoes 2.83763
lfemur -33.1024 62.1534 52.0094
ltibia 139.321
lfoot 8.15872 -70.8168
ltoes 14.7715
97
root 0.0349239 8.37395 -1.00387 5.2779 -85.6057 -35.177
lowerback 56.9152 -4.96802 6.39101
upperback 2.43246 -3.90603 -2.85614
thorax -19.5258 -2.50683 -3.9433
lowerneck 2.03534 1.08516 -2.24743
upperneck 2.33242 1.37862 0.653175
head 0.35428 0.663954 0.5608
rclavicle 1.68967e-015 -6.75868e-015
rhumerus 68.5231 2.52682 -90.9556
rradius 4.74363
rwrist 53.0656
rhand -20.5366 8.39598
rfingers 7.12502
rthumb 5.82174 -21.504
lclavicle 1.68967e-015 -6.75868e-015
lhumerus 69.5623 9.13651 110.551
lradius 9.55441
lwrist -89.4893
lhand -20.3063 -1.39104
lfingers 7.12502
lthumb 6.04406 28.5027
rfemur 1.31614 -63.5338 -79.9761
rtibia 139.247
rfoot 26.7446 67.8762
rtoes 2.52289
lfemur -35.4852 60.562 47.3916
ltibia 137.953
lfoot 7.63484 -69.3917
ltoes 14.8703
98
root 0.0433319 8.54851 -1.01053 4.95383 -85.5777 -34.4556
lowerback 56.3346 -4.92168 6.35439
upperback 2.41655 -3.87708 -2.81702
thorax -19.489 -2.48559 -3.91159
lowerneck 2.0285 1.1109 -2.23254
upperneck 2.42812 1.4121 0.683423
head 0.383877 0.67995 0.568036
rclavicle 2.13694e-014 -1.59028e-014
rhumerus 68.4617 2.68428 -90.9756
rradius 4.66372
rwrist 52.8445
rhand -20.4881 8.13137
rfingers 7.12502
rthumb 5.86855 -21.7674
lclavicle 2.13694e-014 -1.59028e-014
lhumerus 69.7266 8.88285 110.441
lradius 9.35492
lwrist -89.0956
lhand -20.0312 -1.01825
lfingers 7.12502
lthumb 6.30969 28.8678
rfemur -4.61482 -63.3134 -71.5092
rtibia 137.805
rfoot 25.3593 66.0147
rtoes 2.01869
lfemur -37.7201 58.7301 42.8769
ltibia 136.525
lfoot 6.76528 -67.9439
ltoes 14.9951
99
root 0.0515133 8.72947 -1.0178 4.74068 -85.5878 -33.8293
lowerback 55.7115 -4.84428 6.28399
upperback 2.42135 -3.83315 -2.76567
thorax -19.4147 -2.45602 -3.85976
lowerneck 1.97843 1.14556 -2.29561
upperneck 2.54044 1.45653 0.767398
head 0.424644 0.700965 0.605176
rclavicle 3.47873e-015 -1.11319e-014
rhumerus 68.46 2.8639 -90.9884
rradius 4.48727
rwrist 52.7648
rhand -20.4637 7.84438
rfingers 7.12502
rthumb 5.89215 -22.0537
lclavicle 3.47873e-015 -1.11319e-014
lhumerus 69.8947 8.67477 110.336
lradius 9.19094
lwrist -88.8613
lhand -19.5916 -0.697452
lfingers 7.12502
lthumb 6.73406 29.1755
rfemur -10.7137 -62.5839 -62.8472
rtibia 136.308
rfoot 24.0531 63.9732
rtoes 1.49568
lfemur -39.468 56.8008 38.8293
ltibia 135.037
lfoot 5.66096 -66.4905
ltoes 15.0974
100
root 0.060239 8.91345 -1.02444 4.5434 -85.5725 -33.2313
lowerback 55.0951 -4.78856 6.24707
upperback 2.42703 -3.79647 -2.72619
thorax -19.3377 -2.4317 -3.83305
lowerneck 2.00062 1.15883 -2.29824
upperneck 2.57282 1.47271 0.797148
head 0.430405 0.708714 0.614735
rclavicle 6.95746e-015 2.34566e-014
rhumerus 68.4104 3.04791 -91.0255
rradius 4.36949
rwrist 52.815
rhand -20.3929 7.49601
rfingers 7.12502
rthumb 5.96047 -22.4002
lclavicle 6.95746e-015 2.34566e-014
lhumerus 70.0188 8.45843 110.218
lradius 9.02448
lwrist -88.7681
lhand -19.0745 -0.353363
lfingers 7.12502
lthumb 7.2332 29.503
rfemur -16.1534 -61.3589 -54.8572
rtibia 134.763
rfoot 23.0579 61.9317
rtoes 1.19994
lfemur -40.9921 54.6934 35.0046
ltibia 133.502
lfoot 4.63406 -64.9832
ltoes 15.1178
101
root 0.0686377 9.10247 -1.03143 4.30169 -85.5651 -32.6009
lowerback 54.5204 -4.73854 6.21388
upperback 2.41416 -3.76441 -2.70221
thorax -19.2868 -2.41009 -3.8228
lowerneck 2.01603 1.1739 -2.25507
upperneck 2.61835 1.49237 0.807315
head 0.44164 0.718443 0.610759
rclavicle -1.30204e-014 -1.94809e-014
rhumerus 68.2781 3.19602 -91.0708
rradius 4.34623
rwrist 52.988
rhand -20.2269 7.15526
rfingers 7.12502
rthumb 6.12077 -22.7363
lclavicle -1.30204e-014 -1.94809e-014
lhumerus 70.0782 8.26072 110.072
lradius 8.91208
lwrist -88.8014
lhand -18.4838 -0.143116
lfingers 7.12502
lthumb 7.80344 29.6929
rfemur -20.9918 -59.7032 -47.4911
rtibia 133.175
rfoot 21.9302 59.8772
rtoes 0.786225
lfemur -42.1179 52.5084 31.5615
ltibia 131.914
lfoot 3.51086 -63.4553
ltoes 15.1741
102
root 0.0776534 9.29472 -1.0387 4.37435 -85.5548 -32.2743
lowerback 53.9392 -4.68538 6.17572
upperback 2.41284 -3.72629 -2.64766
thorax -19.2125 -2.38529 -3.77808
lowerneck 1.96856 1.19023 -2.25799
upperneck 2.64942 1.51542 0.796374
head 0.458585 0.729783 0.608368
rclavicle 2.82274e-014 -8.74653e-015
rhumerus 68.1598 3.40889 -91.1067
rradius 4.32519
rwrist 53.2555
rhand -20.1106 6.8396
rfingers 7.12502
rthumb 6.23299 -23.0487
lclavicle 2.82274e-014 -8.74653e-015
lhumerus 70.0902 8.0985 109.953
lradius 8.90718
lwrist -88.9277
lhand -17.9091 0.124699
lfingers 7.12502
lthumb 8.35809 29.9393
rfemur -25.1365 -57.7215 -40.8006
rtibia 131.538
rfoot 20.9354 57.7657
rtoes 0.588582
lfemur -42.966 50.3118 28.4388
ltibia 130.287
lfoot 2.24577 -61.9397
ltoes 15.1664
103
root 0.0862773 9.48937 -1.04617 4.15496 -85.5567 -31.6638
lowerback 53.3773 -4.62884 6.12273
upperback 2.40365 -3.69522 -2.61031
thorax -19.1492 -2.36276 -3.74257
lowerneck 1.96417 1.20105 -2.23631
upperneck 2.61692 1.53081 0.788897
head 0.449355 0.738013 0.602259
rclavicle -3.0911e-014 7.95139e-015
rhumerus 68.0291 3.61363 -91.1602
rradius 4.29131
rwrist 53.591
rhand -20.0011 6.50484
rfingers 7.12502
rthumb 6.33874 -23.3803
lclavicle -3.0911e-014 7.95139e-015
lhumerus 70.0428 7.95277 109.81
lradius 8.96189
lwrist -89.1387
lhand -17.3531 0.37637
lfingers 7.12502
lthumb 8.89464 30.1689
rfemur -28.4819 -55.5217 -34.9852
rtibia 129.864
rfoot 19.8465 55.7306
rtoes 0.259223
lfemur -43.5075 48.1022 25.5935
ltibia 128.615
lfoot 0.850954 -60.4384
ltoes 15.0118
104
root 0.0951024 9.68654 -1.05353 4.41252 -85.5517 -31.5329
lowerback 52.8171 -4.59358 6.11728
upperback 2.39232 -3.66105 -2.57123
thorax -19.0848 -2.34227 -3.72857
lowerneck 2.03409 1.20592 -2.2168
upperneck 2.50592 1.53713 0.756166
head 0.404378 0.742038 0.587736
rclavicle -3.27995e-015 1.94809e-014
rhumerus 67.884 3.8336 -91.224
rradius 4.23635
rwrist 53.9599
rhand -19.9142 6.2026
rfingers 7.12502
rthumb 6.42265 -23.68
lclavicle -3.27995e-015 1.94809e-014
lhumerus 69.963 7.85978 109.646
lradius 9.02182
lwrist -89.3126
lhand -16.8673 0.579713
lfingers 7.12502
lthumb 9.36342 30.3517
rfemur -31.0822 -53.1676 -29.8892
rtibia 128.135
rfoot 18.9239 53.7532
rtoes 0.275967
lfemur -43.8044 45.9273 23.0683
ltibia 126.915
lfoot -0.630637 -58.995
ltoes 14.8292
105
root 0.104493 9.88677 -1.06147 4.2694 -85.5521 -31.0232
lowerback 52.2855 -4.55894 6.10179
upperback 2.38931 -3.63968 -2.55797
thorax -19.014 -2.32703 -3.73259
lowerneck 2.06507 1.20934 -2.20011
upperneck 2.3942 1.54218 0.762746
head 0.365333 0.745739 0.586103
rclavicle -8.94531e-015 1.31198e-014
rhumerus 67.7391 4.06361 -91.3274
rradius 4.20401
rwrist 54.3036
rhand -19.8273 5.9337
rfingers 7.12502
rthumb 6.50657 -23.9464
lclavicle -8.94531e-015 1.31198e-014
lhumerus 69.8422 7.7505 109.46
lradius 9.12796
lwrist -89.4883
lhand -16.4812 0.797063
lfingers 7.12502
lthumb 9.73592 30.552
rfemur -33.0229 -50.7732 -25.5444
rtibia 126.373
rfoot 17.9509 51.8767
rtoes 0.416903
lfemur -43.8715 43.7532 20.7199
ltibia 125.157
lfoot -2.18901 -57.5406
ltoes 14.6172
106
root 0.113568 10.0883 -1.06916 4.49091 -85.5565 -30.8707
lowerback 51.7279 -4.52353 6.09875
upperback 2.38884 -3.60664 -2.52276
thorax -18.9295 -2.30742 -3.72393
lowerneck 2.14541 1.21149 -2.23439
upperneck 2.23845 1.54353 0.767112
head 0.304619 0.74736 0.591707
rclavicle -1.53064e-014 -7.55382e-015
rhumerus 67.595 4.25445 -91.3766
rradius 4.15621
rwrist 54.6048
rhand -19.7281 5.71046
rfingers 7.12502
rthumb 6.60231 -24.1666
lclavicle -1.53064e-014 -7.55382e-015
lhumerus 69.714 7.66551 109.295
lradius 9.19528
lwrist -89.5361
lhand -16.1689 1.02482
lfingers 7.12502
lthumb 10.0372 30.7655
rfemur -34.4331 -48.3977 -21.7402
rtibia 124.562
rfoot 16.9758 50.1878
rtoes 0.675728
lfemur -43.7895 41.6428 18.5964
ltibia 123.378
lfoot -3.74982 -56.1005
ltoes 14.2482
107
root 0.122727 10.2904 -1.07716 4.24967 -85.5576 -30.2822
lowerback 51.2086 -4.48767 6.07887
upperback 2.38261 -3.58624 -2.51122
thorax -18.858 -2.29251 -3.72734
lowerneck 2.22345 1.21596 -2.20263
upperneck 2.09941 1.54928 0.757091
head 0.24992 0.751495 0.582064
rclavicle -3.08116e-015 -7.55382e-015
rhumerus 67.4213 4.40903 -91.4423
rradius 4.15047
rwrist 54.8751
rhand -19.5864 5.53361
rfingers 7.12502
rthumb 6.73913 -24.3391
lclavicle -3.08116e-015 -7.55382e-015
lhumerus 69.6022 7.5613 109.107
lradius 9.16976
lwrist -89.5236
lhand -15.9708 1.25538
lfingers 7.12502
lthumb 10.2284 30.9867
rfemur -35.3487 -46.0826 -18.5499
rtibia 122.724
rfoot 16.1468 48.6008
rtoes 0.99452
lfemur -43.5271 39.5698 16.6172
ltibia 121.557
lfoot -5.26766 -54.6502
ltoes 13.9452
108
root 0.132033 10.4943 -1.08539 4.27013 -85.5548 -29.96
lowerback 50.6833 -4.45194 6.06433
upperback 2.38671 -3.55941 -2.47654
thorax -18.7662 -2.27493 -3.71011
lowerneck 2.1977 1.22506 -2.24567
upperneck 2.05905 1.56158 0.773717
head 0.241241 0.757873 0.594259
rclavicle 1.05356e-014 -6.75868e-015
rhumerus 67.2712 4.57072 -91.4757
rradius 4.14388
rwrist 55.143
rhand -19.4169 5.4138
rfingers 7.12502
rthumb 6.90268 -24.4537
lclavicle 1.05356e-014 -6.75868e-015
lhumerus 69.4907 7.48 108.942
lradius 9.1206
lwrist -89.406
lhand -15.8532 1.4824
lfingers 7.12502
lthumb 10.3418 31.2081
rfemur -35.9076 -43.848 -15.7016
rtibia 120.833
rfoot 15.2153 47.2028
rtoes 1.30906
lfemur -43.1471 37.5654 14.812
ltibia 119.705
lfoot -6.85161 -53.2232
ltoes 13.5236
109
root 0.141115 10.6953 -1.09376 4.27615 -85.5714 -29.6384
lowerback 50.1633 -4.41193 6.03643
upperback 2.39959 -3.53649 -2.44374
thorax -18.6616 -2.25824 -3.68672
lowerneck 2.19538 1.23593 -2.30769
upperneck 1.99748 1.57521 0.803358
head 0.222026 0.764914 0.613353
rclavicle -1.52567e-014 3.10104e-014
rhumerus 67.115 4.75576 -91.521
rradius 4.17429
rwrist 55.3841
rhand -19.2014 5.29107
rfingers 7.12502
rthumb 7.11078 -24.5695
lclavicle -1.52567e-014 3.10104e-014
lhumerus 69.3391 7.45048 108.756
lradius 9.1427
lwrist -89.1922
lhand -15.7251 1.69274
lfingers 7.12502
lthumb 10.4654 31.4122
rfemur -36.1844 -41.7056 -13.2261
rtibia 118.922
rfoot 14.4328 45.9229
rtoes 1.84382
lfemur -42.6371 35.6713 13.1803
ltibia 117.843
lfoot -8.38847 -51.8412
ltoes 13.0989
110
root 0.150813 10.8979 -1.10226 4.56137 -85.5843 -29.5923
lowerback 49.6343 -4.37625 6.0395
upperback 2.4209 -3.50451 -2.41913
thorax -18.5418 -2.24013 -3.6925
lowerneck 2.1197 1.24509 -2.30645
upperneck 2.00166 1.58978 0.803609
head 0.235424 0.772502 0.613714
rclavicle -1.54555e-014 9.14409e-015
rhumerus 66.9429 4.91085 -91.577
rradius 4.25941
rwrist 55.5986
rhand -18.9792 5.20679
rfingers 7.12502
rthumb 7.32521 -24.6464
lclavicle -1.54555e-014 9.14409e-015
lhumerus 69.1834 7.38998 108.561
lradius 9.15289
lwrist -88.8851
lhand -15.6142 1.81899
lfingers 7.12502
lthumb 10.5723 31.5331
rfemur -36.2686 -39.6732 -10.9584
rtibia 116.979
rfoot 13.3704 44.8268
rtoes 2.31576
lfemur -42.0562 33.8663 11.6884
ltibia 115.949
lfoot -9.8868 -50.4575
ltoes 12.5487
